<svg width="261" height="174" viewBox="0 0 261 174" fill="none" xmlns="http://www.w3.org/2000/svg">
<path d="M33.9486 159H16.7886C14.5753 159 12.5219 158.68 10.6286 158.04C8.76192 157.373 7.14859 156.413 5.78859 155.16C4.42859 153.907 3.36192 152.387 2.58859 150.6C1.81525 148.813 1.42859 146.773 1.42859 144.48C1.42859 142.347 1.81525 140.387 2.58859 138.6C3.38859 136.813 4.46859 135.28 5.82859 134C7.18859 132.72 8.78859 131.733 10.6286 131.04C12.4686 130.32 14.4419 129.96 16.5486 129.96C18.6553 129.96 20.6286 130.32 22.4686 131.04C24.3086 131.76 25.9086 132.76 27.2686 134.04C28.6286 135.32 29.6953 136.853 30.4686 138.64C31.2686 140.4 31.6686 142.347 31.6686 144.48C31.6686 145.493 31.5486 146.48 31.3086 147.44C31.0953 148.4 30.7619 149.307 30.3086 150.16C29.8553 151.013 29.2686 151.787 28.5486 152.48C27.8286 153.147 26.9886 153.693 26.0286 154.12V154.2H33.9486V159ZM7.90859 144.48C7.90859 145.707 8.13526 146.853 8.58859 147.92C9.04192 148.987 9.65526 149.92 10.4286 150.72C11.2286 151.493 12.1486 152.107 13.1886 152.56C14.2286 153.013 15.3486 153.24 16.5486 153.24C17.7486 153.24 18.8686 153.013 19.9086 152.56C20.9486 152.107 21.8553 151.493 22.6286 150.72C23.4286 149.92 24.0553 148.987 24.5086 147.92C24.9619 146.853 25.1886 145.707 25.1886 144.48C25.1886 143.253 24.9619 142.107 24.5086 141.04C24.0553 139.973 23.4286 139.053 22.6286 138.28C21.8553 137.48 20.9486 136.853 19.9086 136.4C18.8686 135.947 17.7486 135.72 16.5486 135.72C15.3486 135.72 14.2286 135.947 13.1886 136.4C12.1486 136.853 11.2286 137.48 10.4286 138.28C9.65526 139.053 9.04192 139.973 8.58859 141.04C8.13526 142.107 7.90859 143.253 7.90859 144.48ZM54.8061 159H49.0461V156.36H48.9661C48.7528 156.733 48.4728 157.107 48.1261 157.48C47.8061 157.853 47.4061 158.187 46.9261 158.48C46.4461 158.773 45.8994 159.013 45.2861 159.2C44.6728 159.387 44.0061 159.48 43.2861 159.48C41.7661 159.48 40.5261 159.253 39.5661 158.8C38.6328 158.32 37.8994 157.667 37.3661 156.84C36.8594 156.013 36.5128 155.04 36.3261 153.92C36.1661 152.8 36.0861 151.587 36.0861 150.28V139.56H42.0861V149.08C42.0861 149.64 42.0994 150.227 42.1261 150.84C42.1794 151.427 42.2994 151.973 42.4861 152.48C42.6994 152.987 43.0061 153.4 43.4061 153.72C43.8328 154.04 44.4328 154.2 45.2061 154.2C45.9794 154.2 46.6061 154.067 47.0861 153.8C47.5661 153.507 47.9261 153.133 48.1661 152.68C48.4328 152.2 48.6061 151.667 48.6861 151.08C48.7661 150.493 48.8061 149.88 48.8061 149.24V139.56H54.8061V159ZM71.0898 156.56H71.0098C70.3432 157.6 69.4498 158.347 68.3298 158.8C67.2365 159.253 66.0765 159.48 64.8498 159.48C63.9432 159.48 63.0632 159.347 62.2098 159.08C61.3832 158.84 60.6498 158.467 60.0098 157.96C59.3698 157.453 58.8632 156.827 58.4898 156.08C58.1165 155.333 57.9298 154.467 57.9298 153.48C57.9298 152.36 58.1298 151.413 58.5298 150.64C58.9565 149.867 59.5165 149.227 60.2098 148.72C60.9298 148.213 61.7432 147.827 62.6498 147.56C63.5565 147.267 64.4898 147.053 65.4498 146.92C66.4365 146.787 67.4098 146.707 68.3698 146.68C69.3565 146.653 70.2632 146.64 71.0898 146.64C71.0898 145.573 70.7032 144.733 69.9298 144.12C69.1832 143.48 68.2898 143.16 67.2498 143.16C66.2632 143.16 65.3565 143.373 64.5298 143.8C63.7298 144.2 63.0098 144.76 62.3698 145.48L59.1698 142.2C60.2898 141.16 61.5965 140.387 63.0898 139.88C64.5832 139.347 66.1298 139.08 67.7298 139.08C69.4898 139.08 70.9298 139.307 72.0498 139.76C73.1965 140.187 74.1032 140.827 74.7698 141.68C75.4632 142.533 75.9432 143.587 76.2098 144.84C76.4765 146.067 76.6098 147.493 76.6098 149.12V159H71.0898V156.56ZM69.6098 150.48C69.1565 150.48 68.5832 150.507 67.8898 150.56C67.2232 150.587 66.5698 150.693 65.9298 150.88C65.3165 151.067 64.7832 151.347 64.3298 151.72C63.9032 152.093 63.6898 152.613 63.6898 153.28C63.6898 154 63.9965 154.533 64.6098 154.88C65.2232 155.227 65.8632 155.4 66.5298 155.4C67.1165 155.4 67.6765 155.32 68.2098 155.16C68.7698 155 69.2632 154.773 69.6898 154.48C70.1165 154.187 70.4498 153.813 70.6898 153.36C70.9565 152.907 71.0898 152.373 71.0898 151.76V150.48H69.6098ZM80.2092 139.56H86.2092V142.68H86.2892C86.9292 141.48 87.6892 140.587 88.5692 140C89.4492 139.387 90.5559 139.08 91.8892 139.08C92.2359 139.08 92.5825 139.093 92.9292 139.12C93.2759 139.147 93.5959 139.2 93.8892 139.28V144.76C93.4625 144.627 93.0359 144.533 92.6092 144.48C92.2092 144.4 91.7825 144.36 91.3292 144.36C90.1825 144.36 89.2759 144.52 88.6092 144.84C87.9425 145.16 87.4225 145.613 87.0492 146.2C86.7025 146.76 86.4759 147.44 86.3692 148.24C86.2625 149.04 86.2092 149.92 86.2092 150.88V159H80.2092V139.56ZM109.573 144.36H104.293V150.84C104.293 151.373 104.32 151.867 104.373 152.32C104.427 152.747 104.547 153.12 104.733 153.44C104.92 153.76 105.2 154.013 105.573 154.2C105.973 154.36 106.493 154.44 107.133 154.44C107.453 154.44 107.867 154.413 108.373 154.36C108.907 154.28 109.307 154.12 109.573 153.88V158.88C108.907 159.12 108.213 159.28 107.493 159.36C106.773 159.44 106.067 159.48 105.373 159.48C104.36 159.48 103.427 159.373 102.573 159.16C101.72 158.947 100.973 158.613 100.333 158.16C99.6933 157.68 99.1866 157.067 98.8133 156.32C98.4666 155.573 98.2933 154.667 98.2933 153.6V144.36H94.4533V139.56H98.2933V133.8H104.293V139.56H109.573V144.36ZM130.857 155.64C129.897 156.867 128.684 157.813 127.217 158.48C125.751 159.147 124.231 159.48 122.657 159.48C121.164 159.48 119.751 159.24 118.417 158.76C117.111 158.28 115.964 157.6 114.977 156.72C114.017 155.813 113.257 154.733 112.697 153.48C112.137 152.227 111.857 150.827 111.857 149.28C111.857 147.733 112.137 146.333 112.697 145.08C113.257 143.827 114.017 142.76 114.977 141.88C115.964 140.973 117.111 140.28 118.417 139.8C119.751 139.32 121.164 139.08 122.657 139.08C124.044 139.08 125.297 139.32 126.417 139.8C127.564 140.28 128.524 140.973 129.297 141.88C130.097 142.76 130.711 143.827 131.137 145.08C131.564 146.333 131.777 147.733 131.777 149.28V151.16H117.857C118.097 152.307 118.617 153.227 119.417 153.92C120.217 154.587 121.204 154.92 122.377 154.92C123.364 154.92 124.191 154.707 124.857 154.28C125.551 153.827 126.151 153.253 126.657 152.56L130.857 155.64ZM125.777 147.08C125.804 146.067 125.471 145.2 124.777 144.48C124.084 143.76 123.191 143.4 122.097 143.4C121.431 143.4 120.844 143.507 120.337 143.72C119.831 143.933 119.391 144.213 119.017 144.56C118.671 144.88 118.391 145.267 118.177 145.72C117.991 146.147 117.884 146.6 117.857 147.08H125.777ZM135.261 139.56H141.261V142.68H141.341C141.981 141.48 142.741 140.587 143.621 140C144.501 139.387 145.608 139.08 146.941 139.08C147.288 139.08 147.634 139.093 147.981 139.12C148.328 139.147 148.648 139.2 148.941 139.28V144.76C148.514 144.627 148.088 144.533 147.661 144.48C147.261 144.4 146.834 144.36 146.381 144.36C145.234 144.36 144.328 144.52 143.661 144.84C142.994 145.16 142.474 145.613 142.101 146.2C141.754 146.76 141.528 147.44 141.421 148.24C141.314 149.04 141.261 149.92 141.261 150.88V159H135.261V139.56ZM151.945 139.56H157.465V142.12H157.545C157.785 141.773 158.092 141.427 158.465 141.08C158.865 140.707 159.318 140.373 159.825 140.08C160.358 139.787 160.932 139.547 161.545 139.36C162.158 139.173 162.812 139.08 163.505 139.08C164.945 139.08 166.252 139.333 167.425 139.84C168.598 140.32 169.598 141.013 170.425 141.92C171.278 142.8 171.932 143.853 172.385 145.08C172.838 146.307 173.065 147.653 173.065 149.12C173.065 150.48 172.852 151.787 172.425 153.04C172.025 154.267 171.438 155.36 170.665 156.32C169.918 157.28 168.998 158.053 167.905 158.64C166.812 159.2 165.572 159.48 164.185 159.48C162.932 159.48 161.758 159.293 160.665 158.92C159.598 158.52 158.718 157.853 158.025 156.92H157.945V168.12H151.945V139.56ZM157.465 149.28C157.465 150.747 157.878 151.933 158.705 152.84C159.558 153.747 160.745 154.2 162.265 154.2C163.785 154.2 164.958 153.747 165.785 152.84C166.638 151.933 167.065 150.747 167.065 149.28C167.065 147.813 166.638 146.627 165.785 145.72C164.958 144.813 163.785 144.36 162.265 144.36C160.745 144.36 159.558 144.813 158.705 145.72C157.878 146.627 157.465 147.813 157.465 149.28ZM176.495 139.56H182.495V159H176.495V139.56ZM176.015 133.44C176.015 132.48 176.349 131.667 177.015 131C177.709 130.307 178.535 129.96 179.495 129.96C180.455 129.96 181.269 130.307 181.935 131C182.629 131.667 182.975 132.48 182.975 133.44C182.975 134.4 182.629 135.227 181.935 135.92C181.269 136.587 180.455 136.92 179.495 136.92C178.535 136.92 177.709 136.587 177.015 135.92C176.349 135.227 176.015 134.4 176.015 133.44ZM186.721 128.76H192.721V159H186.721V128.76ZM196.947 128.76H202.947V159H196.947V128.76ZM219.292 156.56H219.212C218.546 157.6 217.652 158.347 216.532 158.8C215.439 159.253 214.279 159.48 213.052 159.48C212.146 159.48 211.266 159.347 210.412 159.08C209.586 158.84 208.852 158.467 208.212 157.96C207.572 157.453 207.066 156.827 206.692 156.08C206.319 155.333 206.132 154.467 206.132 153.48C206.132 152.36 206.332 151.413 206.732 150.64C207.159 149.867 207.719 149.227 208.412 148.72C209.132 148.213 209.946 147.827 210.852 147.56C211.759 147.267 212.692 147.053 213.652 146.92C214.639 146.787 215.612 146.707 216.572 146.68C217.559 146.653 218.466 146.64 219.292 146.64C219.292 145.573 218.906 144.733 218.132 144.12C217.386 143.48 216.492 143.16 215.452 143.16C214.466 143.16 213.559 143.373 212.732 143.8C211.932 144.2 211.212 144.76 210.572 145.48L207.372 142.2C208.492 141.16 209.799 140.387 211.292 139.88C212.786 139.347 214.332 139.08 215.932 139.08C217.692 139.08 219.132 139.307 220.252 139.76C221.399 140.187 222.306 140.827 222.972 141.68C223.666 142.533 224.146 143.587 224.412 144.84C224.679 146.067 224.812 147.493 224.812 149.12V159H219.292V156.56ZM217.812 150.48C217.359 150.48 216.786 150.507 216.092 150.56C215.426 150.587 214.772 150.693 214.132 150.88C213.519 151.067 212.986 151.347 212.532 151.72C212.106 152.093 211.892 152.613 211.892 153.28C211.892 154 212.199 154.533 212.812 154.88C213.426 155.227 214.066 155.4 214.732 155.4C215.319 155.4 215.879 155.32 216.412 155.16C216.972 155 217.466 154.773 217.892 154.48C218.319 154.187 218.652 153.813 218.892 153.36C219.159 152.907 219.292 152.373 219.292 151.76V150.48H217.812ZM228.412 139.56H234.412V142.68H234.492C235.132 141.48 235.892 140.587 236.772 140C237.652 139.387 238.758 139.08 240.092 139.08C240.438 139.08 240.785 139.093 241.132 139.12C241.478 139.147 241.798 139.2 242.092 139.28V144.76C241.665 144.627 241.238 144.533 240.812 144.48C240.412 144.4 239.985 144.36 239.532 144.36C238.385 144.36 237.478 144.52 236.812 144.84C236.145 145.16 235.625 145.613 235.252 146.2C234.905 146.76 234.678 147.44 234.572 148.24C234.465 149.04 234.412 149.92 234.412 150.88V159H228.412V139.56ZM255.536 145.28C254.656 144.187 253.496 143.64 252.056 143.64C251.549 143.64 251.056 143.76 250.576 144C250.096 144.24 249.856 144.653 249.856 145.24C249.856 145.72 250.096 146.08 250.576 146.32C251.082 146.533 251.709 146.733 252.456 146.92C253.229 147.08 254.042 147.267 254.896 147.48C255.776 147.667 256.589 147.973 257.336 148.4C258.109 148.827 258.736 149.413 259.216 150.16C259.722 150.88 259.976 151.853 259.976 153.08C259.976 154.333 259.696 155.373 259.136 156.2C258.602 157 257.909 157.653 257.056 158.16C256.202 158.64 255.242 158.973 254.176 159.16C253.109 159.373 252.056 159.48 251.016 159.48C249.656 159.48 248.282 159.293 246.896 158.92C245.509 158.52 244.336 157.827 243.376 156.84L247.016 152.8C247.576 153.493 248.189 154.027 248.856 154.4C249.549 154.747 250.349 154.92 251.256 154.92C251.949 154.92 252.576 154.827 253.136 154.64C253.696 154.427 253.976 154.053 253.976 153.52C253.976 153.013 253.722 152.64 253.216 152.4C252.736 152.133 252.109 151.92 251.336 151.76C250.589 151.573 249.776 151.387 248.896 151.2C248.042 150.987 247.229 150.68 246.456 150.28C245.709 149.88 245.082 149.32 244.576 148.6C244.096 147.853 243.856 146.867 243.856 145.64C243.856 144.493 244.082 143.507 244.536 142.68C245.016 141.853 245.629 141.173 246.376 140.64C247.149 140.107 248.029 139.72 249.016 139.48C250.002 139.213 251.002 139.08 252.016 139.08C253.296 139.08 254.589 139.267 255.896 139.64C257.202 140.013 258.309 140.68 259.216 141.64L255.536 145.28Z" fill="white"/>
<g clip-path="url(#clip0_237_530)">
<path d="M137.08 95.25C121.52 100.96 96.2201 91.1801 86.0801 68.4301C75.9401 45.6801 85.2101 18.51 107.59 5.89005C128.66 -5.97995 157.04 0.650034 170.82 20.66C183.99 39.78 182.21 67.9601 166.59 81.2401L157.28 74.58C158.44 72.93 159.28 71.72 160.13 70.58C172.7 53.43 168.13 29.02 150.28 18.03C132.16 6.88003 108.2 13.35 98.6401 31.97C88.8401 51.03 97.4001 73.97 116.9 82.8C124.06 85.9501 130.38 91.03 137.08 95.25Z" fill="white"/>
<path d="M142.99 74.29C150.5 79.64 157.45 84.48 164.28 89.49C168.34 92.49 168.73 96.18 165.6 99.69C162.7 102.93 159.73 102.61 156.36 100.18C144.86 91.92 133.42 83.57 121.63 75.73C115.63 71.73 109.68 68.05 106.42 61.14C104.206 56.3463 103.435 51.0115 104.202 45.7871C104.969 40.5627 107.241 35.6747 110.74 31.72C114.284 27.7823 118.909 24.9744 124.037 23.6459C129.166 22.3174 134.572 22.527 139.582 24.2486C144.592 25.9702 148.985 29.1278 152.214 33.328C155.443 37.5282 157.365 42.5855 157.74 47.87C158.44 59.41 153.14 67.63 142.99 74.29ZM118.44 49.68C118.44 52.9846 119.753 56.1538 122.09 58.4905C124.426 60.8272 127.595 62.14 130.9 62.14C134.205 62.14 137.374 60.8272 139.711 58.4905C142.047 56.1538 143.36 52.9846 143.36 49.68C143.36 46.3754 142.047 43.2061 139.711 40.8694C137.374 38.5327 134.205 37.22 130.9 37.22C127.595 37.22 124.426 38.5327 122.09 40.8694C119.753 43.2061 118.44 46.3754 118.44 49.68Z" fill="white"/>
</g>
<defs>
<clipPath id="clip0_237_530">
<rect width="97.63" height="102.07" fill="white" transform="translate(82)"/>
</clipPath>
</defs>
</svg>
